<svg aria-hidden="true" style="width:0;height:0;position:absolute" xmlns="http://www.w3.org/2000/svg" overflow="hidden"><defs><symbol id="arrow-left" viewBox="0 0 32 32"><path d="M25.333 16H6.666M16 25.334l-9.333-9.333L16 6.668"/></symbol><symbol id="arrow-right" viewBox="0 0 32 32"><path d="M6.667 16h18.667M16 25.334l9.333-9.333L16 6.668"/></symbol><symbol id="close" viewBox="0 0 32 32"><path d="m8.533 8.533 14.933 14.933M8.533 23.467 23.466 8.534"/></symbol><symbol id="favorite" viewBox="0 0 32 32"><path d="m16 30.583-2.24-2.24C5.44 20.983 0 16.023 0 9.943c0-4.96 3.84-8.8 8.8-8.8 2.72 0 5.44 1.28 7.2 3.36 1.76-2.08 4.48-3.36 7.2-3.36 4.96 0 8.8 3.84 8.8 8.8 0 6.08-5.44 11.04-13.76 18.4L16 30.583z"/></symbol><symbol id="film" viewBox="0 0 32 32"><path d="M26.427 2.667H5.574a2.907 2.907 0 0 0-2.907 2.907v20.853a2.907 2.907 0 0 0 2.907 2.907h20.853a2.907 2.907 0 0 0 2.907-2.907V5.574a2.907 2.907 0 0 0-2.907-2.907zM9.333 2.667v26.667M22.667 2.667v26.667M2.667 16h26.667M2.667 9.333h6.667M2.667 22.667h6.667M22.667 22.667h6.667M22.667 9.333h6.667"/></symbol><symbol id="icon-lupa" viewBox="0 0 32 32"><path d="M14.667 25.333c5.891 0 10.667-4.776 10.667-10.667S20.558 3.999 14.667 3.999 4 8.775 4 14.666s4.776 10.667 10.667 10.667zM28 28.001l-5.8-5.8"/></symbol><symbol id="linkedin" viewBox="0 0 32 32"><path d="M7.449 10.295H1.025a.516.516 0 0 0-.516.516v20.638c0 .285.231.516.516.516h6.424a.516.516 0 0 0 .516-.516V10.811a.516.516 0 0 0-.516-.516zM4.239.035A4.242 4.242 0 0 0 0 4.269a4.242 4.242 0 0 0 4.239 4.236c2.336 0 4.236-1.9 4.236-4.236S6.575.035 4.239.035zM23.789 9.782c-2.58 0-4.487 1.109-5.644 2.369v-1.34a.516.516 0 0 0-.516-.516h-6.152a.516.516 0 0 0-.516.516v20.638c0 .285.231.516.516.516h6.41a.516.516 0 0 0 .516-.516V21.238c0-3.441.935-4.781 3.333-4.781 2.612 0 2.82 2.149 2.82 4.958v10.034c0 .285.231.516.516.516h6.412a.516.516 0 0 0 .516-.516v-11.32c0-5.116-.976-10.347-8.211-10.347z"/></symbol><symbol id="icon-github" viewBox="0 0 32 32"><path d="M15.938.438C7.137.438 0 7.574 0 16.376 0 23.418 4.567 29.392 10.899 31.5c.796.148 1.089-.346 1.089-.767 0-.38-.015-1.636-.022-2.967-4.434.964-5.37-1.881-5.37-1.881-.725-1.842-1.77-2.332-1.77-2.332-1.446-.989.109-.969.109-.969 1.601.113 2.443 1.642 2.443 1.642 1.421 2.437 3.728 1.732 4.638 1.325.143-1.03.556-1.733 1.012-2.131-3.54-.403-7.261-1.77-7.261-7.877 0-1.74.623-3.162 1.642-4.278-.165-.402-.711-2.023.154-4.218 0 0 1.338-.428 4.384 1.634a15.278 15.278 0 0 1 3.989-.536 15.32 15.32 0 0 1 3.993.536c3.042-2.062 4.379-1.634 4.379-1.634.867 2.195.322 3.816.156 4.218 1.022 1.116 1.64 2.538 1.64 4.278 0 6.122-3.729 7.47-7.277 7.864.572.495 1.081 1.465 1.081 2.951 0 2.133-.018 3.849-.018 4.374 0 .424.287.921 1.095.765 6.329-2.11 10.89-8.082 10.89-15.122 0-8.803-7.136-15.938-15.938-15.938z"/><path d="M5.969 23.142c-.035.079-.16.103-.273.049-.116-.052-.181-.16-.143-.239.034-.081.159-.104.274-.049.116.052.182.161.142.24zm.784.699c-.076.07-.225.038-.325-.074-.104-.111-.124-.26-.047-.331.078-.07.223-.038.327.074.104.112.125.26.045.331zm.538.895c-.098.068-.258.004-.356-.137-.098-.142-.098-.312.002-.38s.256-.007.356.134c.098.144.098.314-.002.384zm.91 1.037c-.087.096-.273.07-.41-.061-.139-.128-.178-.311-.09-.407s.276-.069.413.061c.138.128.181.312.088.407zm1.175.35c-.038.125-.218.181-.398.128-.18-.055-.298-.201-.262-.327.037-.126.217-.185.399-.128.18.054.298.2.261.326zm1.338.148c.005.131-.149.241-.338.243-.191.004-.345-.102-.347-.232 0-.133.15-.241.34-.244s.345.102.345.233zm1.314-.05c.023.128-.109.26-.297.295-.185.034-.356-.045-.38-.172-.023-.131.111-.263.296-.297.188-.033.357.044.381.175z"/></symbol></defs></svg>